HIERARCHY
ROOT hip
{
  OFFSET 0 0 0
  CHANNELS 6 Xposition Yposition Zposition Zrotation Yrotation Xrotation
  JOINT abdomen
  {
    OFFSET 0 20.6881 -0.73152
    CHANNELS 3 Zrotation Xrotation Yrotation
    JOINT chest
    {
      OFFSET 0 11.7043 -0.48768
      CHANNELS 3 Zrotation Xrotation Yrotation
      JOINT neck
      {
        OFFSET 0 22.1894 -2.19456
        CHANNELS 3 Zrotation Xrotation Yrotation
        JOINT head
        {
          OFFSET -0.24384 7.07133 1.2192
          CHANNELS 3 Zrotation Xrotation Yrotation
          JOINT leftEye
          {
            OFFSET 4.14528 8.04674 8.04672
            CHANNELS 3 Zrotation Xrotation Yrotation
            End Site
            {
              OFFSET 1 0 0
            }
          }
          JOINT rightEye
          {
            OFFSET -3.6576 8.04674 8.04672
            CHANNELS 3 Zrotation Xrotation Yrotation
            End Site
            {
              OFFSET 1 0 0
            }
          }
        }
      }
      JOINT rCollar
      {
        OFFSET -2.68224 19.2634 -4.8768
        CHANNELS 3 Zrotation Xrotation Yrotation
        JOINT rShldr
        {
          OFFSET -8.77824 -1.95073 1.46304
          CHANNELS 3 Zrotation Xrotation Yrotation
          JOINT rForeArm
          {
            OFFSET -28.1742 -1.7115 0.48768
            CHANNELS 3 Zrotation Xrotation Yrotation
            JOINT rHand
            {
              OFFSET -22.5879 0.773209 7.07136
              CHANNELS 3 Zrotation Xrotation Yrotation
              JOINT rThumb1
              {
                OFFSET -1.2192 -0.487915 3.41376
                CHANNELS 3 Zrotation Xrotation Yrotation
                JOINT rThumb2
                {
                  OFFSET -3.37035 -0.52449 3.41376
                  CHANNELS 3 Zrotation Xrotation Yrotation
                  End Site
                  {
                    OFFSET -1.78271 -1.18214 1.43049
                  }
                }
              }
              JOINT rIndex1
              {
                OFFSET -7.75947 0.938293 5.60832
                CHANNELS 3 Zrotation Xrotation Yrotation
                JOINT rIndex2
                {
                  OFFSET -2.54057 -0.884171 1.56538
                  CHANNELS 3 Zrotation Xrotation Yrotation
                  End Site
                  {
                    OFFSET -1.62519 -0.234802 1.16502
                  }
                }
              }
              JOINT rMid1
              {
                OFFSET -8.24714 1.18213 3.41376
                CHANNELS 3 Zrotation Xrotation Yrotation
                JOINT rMid2
                {
                  OFFSET -3.10165 -0.590103 1.0647
                  CHANNELS 3 Zrotation Xrotation Yrotation
                  End Site
                  {
                    OFFSET -2.48547 -0.328903 0.83742
                  }
                }
              }
              JOINT rRing1
              {
                OFFSET -8.82822 0.546677 1.51678
                CHANNELS 3 Zrotation Xrotation Yrotation
                JOINT rRing2
                {
                  OFFSET -2.60934 -0.819778 -0.0198488
                  CHANNELS 3 Zrotation Xrotation Yrotation
                  End Site
                  {
                    OFFSET -2.33842 -0.294052 0.168128
                  }
                }
              }
              JOINT rPinky1
              {
                OFFSET -8.27202 -0.0477905 -0.4584
                CHANNELS 3 Zrotation Xrotation Yrotation
                JOINT rPinky2
                {
                  OFFSET -1.82734 -0.647385 -0.700984
                  CHANNELS 3 Zrotation Xrotation Yrotation
                  End Site
                  {
                    OFFSET -1.69225 -0.51767 -0.607171
                  }
                }
              }
            }
          }
        }
      }
      JOINT lCollar
      {
        OFFSET 2.68224 19.2634 -4.8768
        CHANNELS 3 Zrotation Xrotation Yrotation
        JOINT lShldr
        {
          OFFSET 8.77824 -1.95073 1.46304
          CHANNELS 3 Zrotation Xrotation Yrotation
          JOINT lForeArm
          {
            OFFSET 28.1742 -1.7115 0.48768
            CHANNELS 3 Zrotation Xrotation Yrotation
            JOINT lHand
            {
              OFFSET 22.5879 0.773209 7.07136
              CHANNELS 3 Zrotation Xrotation Yrotation
              JOINT lThumb1
              {
                OFFSET 1.2192 -0.487915 3.41376
                CHANNELS 3 Zrotation Xrotation Yrotation
                JOINT lThumb2
                {
                  OFFSET 3.37035 -0.52449 3.41376
                  CHANNELS 3 Zrotation Xrotation Yrotation
                  End Site
                  {
                    OFFSET 1.78271 -1.18214 1.43049
                  }
                }
              }
              JOINT lIndex1
              {
                OFFSET 7.75947 0.938293 5.60832
                CHANNELS 3 Zrotation Xrotation Yrotation
                JOINT lIndex2
                {
                  OFFSET 2.54057 -0.884171 1.56538
                  CHANNELS 3 Zrotation Xrotation Yrotation
                  End Site
                  {
                    OFFSET 1.62519 -0.234802 1.16502
                  }
                }
              }
              JOINT lMid1
              {
                OFFSET 8.24714 1.18213 3.41376
                CHANNELS 3 Zrotation Xrotation Yrotation
                JOINT lMid2
                {
                  OFFSET 3.10165 -0.590103 1.0647
                  CHANNELS 3 Zrotation Xrotation Yrotation
                  End Site
                  {
                    OFFSET 2.48547 -0.328903 0.83742
                  }
                }
              }
              JOINT lRing1
              {
                OFFSET 8.82822 0.546677 1.51678
                CHANNELS 3 Zrotation Xrotation Yrotation
                JOINT lRing2
                {
                  OFFSET 2.60934 -0.819778 -0.0198488
                  CHANNELS 3 Zrotation Xrotation Yrotation
                  End Site
                  {
                    OFFSET 2.33842 -0.294052 0.168128
                  }
                }
              }
              JOINT lPinky1
              {
                OFFSET 8.27202 -0.0477905 -0.4584
                CHANNELS 3 Zrotation Xrotation Yrotation
                JOINT lPinky2
                {
                  OFFSET 1.82734 -0.647385 -0.700984
                  CHANNELS 3 Zrotation Xrotation Yrotation
                  End Site
                  {
                    OFFSET 1.69225 -0.51767 -0.607171
                  }
                }
              }
            }
          }
        }
      }
    }
  }
  JOINT rButtock
  {
    OFFSET -8.77824 4.35084 1.2192
    CHANNELS 3 Zrotation Xrotation Yrotation
    JOINT rThigh
    {
      OFFSET 0 -1.70687 -2.19456
      CHANNELS 3 Zrotation Xrotation Yrotation
      JOINT rShin
      {
        OFFSET 0 -36.8199 0.73152
        CHANNELS 3 Zrotation Xrotation Yrotation
        JOINT rFoot
        {
          OFFSET 0.73152 -45.1104 -5.12064
          CHANNELS 3 Zrotation Xrotation Yrotation
          End Site
          {
            OFFSET -1.1221 -3.69964 12.103
          }
        }
      }
    }
  }
  JOINT lButtock
  {
    OFFSET 8.77824 4.35084 1.2192
    CHANNELS 3 Zrotation Xrotation Yrotation
    JOINT lThigh
    {
      OFFSET 0 -1.70687 -2.19456
      CHANNELS 3 Zrotation Xrotation Yrotation
      JOINT lShin
      {
        OFFSET 0 -36.8199 0.73152
        CHANNELS 3 Zrotation Xrotation Yrotation
        JOINT lFoot
        {
          OFFSET -0.73152 -45.1104 -5.12064
          CHANNELS 3 Zrotation Xrotation Yrotation
          End Site
          {
            OFFSET 1.1221 -3.69964 12.103
          }
        }
      }
    }
  }
}
MOTION
Frames:	4
Frame Time:	0.03333
4.134952928870916 62.56594657897949 49.78348249569535 -77.50933837890625 73.76276397705078 -65.3298110961914 3.332517147064209 30.266141891479492 -5.418779373168945 11.616533279418945 -11.070380210876465 0.039824385195970535 -8.099874496459961 22.131772994995117 -17.47258949279785 26.36194610595703 -32.554527282714844 -28.038055419921875 -0.1116790696978569 0.014472682029008865 0.0017154535744339228 -0.06087775528430939 -0.004080028738826513 0.028095154091715813 0.065405935049057 0.0182923823595047 0.0764847919344902 51.810791015625 5.010567665100098 -3.5348868370056152 -27.867202758789062 -41.53197479248047 86.35530090332031 -0.5641643404960632 -21.737770080566406 -3.25659441947937 -0.02651887945830822 0.06789910048246384 -0.06357474625110626 0.13060221076011658 -0.061463840305805206 0.056918393820524216 0.09543377161026001 0.04865104705095291 0.058022767305374146 7.762503623962402 5.594703197479248 0.3832756280899048 0.04517647251486778 0.07423073798418045 0.007989785633981228 2.7666945457458496 0.8919825553894043 0.08830547332763672 0.10158231109380722 0.00485043041408062 0.032845597714185715 10.397696495056152 0.7532285451889038 0.08872881531715393 0.03751920163631439 -0.025337794795632362 0.011152801103889942 2.287870407104492 -0.7609437108039856 -0.19239097833633423 0.08478160202503204 -0.09866228699684143 -0.03782184422016144 -6.984543323516846 63.730411529541016 -69.46765899658203 27.027135848999023 -43.02009582519531 -89.89696502685547 0.564847469329834 -21.891881942749023 3.0766172409057617 -0.03477952256798744 -0.015487420372664928 -0.11861060559749603 -0.05384588614106178 0.0009796179365366697 -0.010002479888498783 -0.07555030286312103 0.0015565428184345365 0.07504726201295853 -7.716059684753418 5.50933313369751 -0.5164721608161926 -0.009682017378509045 0.017786841839551926 -0.09086280316114426 -2.9349026679992676 0.9443121552467346 -0.2329157441854477 0.014806950464844704 0.017315952107310295 -0.06226254254579544 -10.258672714233398 0.7299354672431946 0.08064328134059906 -0.02769734337925911 -0.03665464371442795 0.0143728693947196 -2.268461227416992 -0.7637545466423035 0.27317625284194946 0.07727529853582382 0.005184506066143513 -0.05656344071030617 -27.573835372924805 -38.94521713256836 -6.611231803894043 -0.9891996383666992 52.9985466003418 2.3522400856018066 -0.5676581859588623 13.385398864746094 9.020057678222656 -0.010049279779195786 -0.09518010914325714 -0.04064406827092171 62.21371841430664 -47.95149230957031 48.47262954711914 5.0706400871276855 80.60934448242188 -6.435657024383545 6.2428388595581055 -13.734447479248047 18.025442123413086
4.231513850390911 61.98190450668335 50.74273385107517 -73.81317138671875 73.84986114501953 -65.60565948486328 3.013624429702759 29.27500343322754 -5.363717555999756 11.28411865234375 -10.99533748626709 -0.09018488228321075 -8.139067649841309 22.248249053955078 -17.584440231323242 26.146541595458984 -32.71128845214844 -28.249893188476562 -0.103936567902565 0.02592187561094761 0.021604739129543304 -0.07897103577852249 -0.00525819743052125 0.04735441505908966 0.08146095275878906 0.024223271757364273 0.04212396219372749 51.52077865600586 5.241231441497803 -3.3564956188201904 -27.766653060913086 -41.79212188720703 86.86347198486328 -0.5884841084480286 -21.382415771484375 -3.179807186126709 -0.02594485692679882 0.02120473049581051 -0.0774403065443039 0.16790711879730225 -0.06809169799089432 0.02683374285697937 0.07640879601240158 0.05855018272995949 0.05589399114251137 7.7780327796936035 5.555644989013672 0.35949450731277466 0.045802224427461624 0.07123763859272003 -0.021927831694483757 2.7822446823120117 0.9039129018783569 0.0997934341430664 0.10800231248140335 0.007220999337732792 0.04368952289223671 10.39069652557373 0.7197278141975403 0.08673201501369476 0.01517244428396225 -0.015875453129410744 -0.00416934909299016 2.247380256652832 -0.7497637867927551 -0.18755961954593658 0.10026057809591293 -0.09986147284507751 -0.04763732850551605 -8.436129570007324 64.57789611816406 -68.44673156738281 27.033159255981445 -43.127403259277344 -90.34207153320312 0.6721519827842712 -22.210451126098633 3.238607168197632 -0.059599701315164566 0.022873586043715477 -0.10283826291561127 -0.08787613362073898 0.01084432564675808 0.030748246237635612 -0.08871781080961227 0.007398610934615135 0.10345757752656937 -7.7090582847595215 5.518551826477051 -0.4869444966316223 0.013097708113491535 0.0021714589092880487 -0.07463333010673523 -2.9372975826263428 0.9102638363838196 -0.21890990436077118 0.018284108489751816 0.06498025357723236 -0.04699152335524559 -10.23011302947998 0.7243266701698303 0.09168291836977005 -0.01927807554602623 -0.08573319017887115 -0.010787968523800373 -2.2246522903442383 -0.735690176486969 0.2717776894569397 0.0357607938349247 -0.007691359147429466 -0.06112639605998993 -27.5706844329834 -38.510894775390625 -7.297659397125244 -1.272160530090332 53.223655700683594 2.636234998703003 0.16004449129104614 8.78095817565918 7.913410186767578 -0.006619325373321772 -0.09644173830747604 -0.013618330471217632 62.007781982421875 -48.80603790283203 46.9207763671875 5.175923824310303 80.94499206542969 -6.547422885894775 5.820219993591309 -13.896923065185547 17.41969871520996
4.31137727573514 61.59021258354187 51.57505730167031 -71.88700866699219 74.29236602783203 -62.77598190307617 2.8643994331359863 28.58179473876953 -5.565680980682373 11.101455688476562 -11.048502922058105 -0.21044296026229858 -8.339558601379395 22.431997299194336 -17.513622283935547 25.924184799194336 -32.514381408691406 -28.281021118164062 -0.07004079222679138 0.013866309076547623 0.07641489058732986 -0.05450168251991272 0.011386355385184288 0.030798835679888725 0.10058543086051941 0.04538701847195625 0.057033538818359375 50.959129333496094 4.7612175941467285 -3.30224609375 -27.787338256835938 -42.21786880493164 87.67042541503906 -0.6037925481796265 -21.17702293395996 -3.1595869064331055 -0.05904471501708031 0.027689507231116295 -0.08253516256809235 0.11578640341758728 -0.08086507022380829 0.02452445775270462 0.0667233094573021 0.09322848170995712 0.03667381405830383 7.762203216552734 5.558845520019531 0.4046434164047241 0.04847094789147377 0.06682952493429184 -0.02921518310904503 2.8053345680236816 0.9214478731155396 0.09973575919866562 0.06496485322713852 0.020794861018657684 0.05055145546793938 10.38399600982666 0.733595073223114 0.05007855221629143 -0.004223393276333809 0.010125977918505669 -0.035771459341049194 2.2430660724639893 -0.7024495601654053 -0.18206551671028137 0.09326805919408798 -0.06131953373551369 -0.06268478184938431 -8.0984525680542 64.83477783203125 -68.8909912109375 26.78053855895996 -43.429298400878906 -90.95686340332031 0.5107086300849915 -21.37950325012207 3.0770480632781982 -0.048685431480407715 0.03881101310253143 -0.03933725133538246 -0.0927056074142456 0.03776104375720024 0.051422230899333954 -0.06426011770963669 0.03844437003135681 0.1097790077328682 -7.702695369720459 5.561298847198486 -0.5099550485610962 0.05237618461251259 0.005216277204453945 -0.009411155246198177 -2.9364092350006104 0.9078313708305359 -0.2037423998117447 -0.030619056895375252 0.043700288981199265 -0.02321501635015011 -10.187544822692871 0.6948878765106201 0.05845750495791435 0.0004187332233414054 -0.07469312846660614 -0.02281123772263527 -2.2080347537994385 -0.7095641493797302 0.20729807019233704 0.032246463000774384 -0.0273191649466753 -0.052281565964221954 -28.461870193481445 -38.75802230834961 -8.101710319519043 -1.1418853998184204 52.616371154785156 2.4447286128997803 0.7966262698173523 5.754037380218506 7.700799942016602 -0.03603874891996384 -0.05078956112265587 -0.004930955823510885 62.60193634033203 -49.383358001708984 45.77289962768555 5.815552711486816 81.32646179199219 -7.3337626457214355 5.5319623947143555 -13.847451210021973 17.12872886657715
4.3859270401299 61.64925694465637 52.27411761879921 -68.95508575439453 74.67371368408203 -62.15706253051758 2.5746989250183105 27.8142032623291 -5.792415142059326 10.867098808288574 -11.157376289367676 -0.313334196805954 -8.413527488708496 22.469520568847656 -17.186994552612305 25.560184478759766 -32.56801986694336 -27.875911712646484 -0.04597286507487297 0.01144745945930481 0.08758343756198883 -0.04501393809914589 0.0200287364423275 0.03882504999637604 0.10065461695194244 0.03928689286112785 0.07660653442144394 50.28297805786133 4.866440296173096 -2.387362241744995 -27.542673110961914 -42.56895446777344 88.51757049560547 -0.5856450200080872 -20.538719177246094 -3.0072598457336426 -0.08938829600811005 0.05414712801575661 -0.10604707896709442 0.07116434723138809 -0.05890604108572006 0.02758083865046501 0.08051914721727371 0.08230821788311005 0.020682865753769875 7.725555896759033 5.567962169647217 0.4287187457084656 0.04580142721533775 0.06059998273849487 -0.014637082815170288 2.850311279296875 0.9332842826843262 0.09236416965723038 0.049715157598257065 0.04474640265107155 0.012670539319515228 10.324357032775879 0.7468112111091614 0.04821818321943283 0.03311280906200409 0.035386037081480026 -0.05367611348628998 2.2532246112823486 -0.6691205501556396 -0.18422381579875946 0.09632133692502975 -0.05050011724233627 -0.11488404124975204 -8.52218246459961 64.38972473144531 -68.60374450683594 26.832292556762695 -43.56107711791992 -90.8824462890625 0.4112844467163086 -20.912710189819336 3.0345728397369385 -0.03764556720852852 0.05006806552410126 0.02613440714776516 -0.06180402636528015 0.06091244891285896 0.06489451974630356 -0.08594543486833572 0.01815185509622097 0.08168534189462662 -7.712741851806641 5.582261085510254 -0.5073033571243286 0.061103641986846924 0.02385491132736206 0.03835560381412506 -2.9380686283111572 0.9189005494117737 -0.19921834766864777 -0.054510898888111115 0.06589110195636749 -0.004209177568554878 -10.22080135345459 0.7101885080337524 -0.00790319126099348 -0.014585732482373714 -0.06400328874588013 -0.04754933342337608 -2.2182457447052 -0.6961112022399902 0.1737513542175293 0.0035350853577256203 -0.05150716006755829 -0.044452738016843796 -29.984628677368164 -39.885841369628906 -10.422367095947266 -0.8827595710754395 52.586727142333984 2.050541400909424 1.040252685546875 4.098201274871826 7.763301372528076 -0.023811575025320053 -0.04357759654521942 -0.03996685519814491 62.619895935058594 -49.436607360839844 44.822593688964844 6.01741361618042 81.38800811767578 -7.626302242279053 5.6817216873168945 -13.784207344055176 17.340845108032227
